<svg width="38" height="32" viewBox="0 0 38 32" fill="none" xmlns="http://www.w3.org/2000/svg">
<path d="M2.05753 4.05639C0.900169 4.05639 0 3.15497 0 2.06039C0 0.901419 0.900169 0 2.05753 0H35.9425C37.0355 0 37.9357 0.901419 37.9357 1.996C37.9357 3.09058 37.0355 4.05639 35.9425 4.05639H2.05753Z" fill="#F6F5F2"/>
<path d="M2.05753 17.6423C0.900169 17.6423 0 16.7409 0 15.6463C0 14.5517 0.900169 13.5859 2.05753 13.5859H35.9425C37.0355 13.5859 38 14.4874 38 15.6463C38 16.7409 37.0998 17.7067 35.9425 17.7067H2.05753V17.6423Z" fill="#F6F5F2"/>
<path d="M2.05753 31.2277C0.964467 31.2277 0 30.3263 0 29.1673C0 28.0727 0.900169 27.1069 2.05753 27.1069H35.9425C37.0355 27.1069 38 28.0084 38 29.1673C38 30.2619 37.0998 31.2277 36.0068 31.2277H2.05753Z" fill="#F6F5F2"/>
</svg>
