<svg width="454" height="460" viewBox="0 0 454 460" fill="none" xmlns="http://www.w3.org/2000/svg">
<path d="M53 235C58.514 235 63 230.514 63 225C63 219.486 58.514 215 53 215C47.486 215 43 219.486 43 225C43 230.514 47.486 235 53 235Z" fill="#3E685A"/>
<path d="M149.166 425V430.333C149.166 443.935 160.231 455 173.833 455H294.167C307.768 455 318.833 443.935 318.833 430.333V425H262C231.289 425 166.981 425 149.166 425Z" fill="#3E685A"/>
<path d="M99 225C99 236.028 107.972 245 119 245C130.028 245 139 236.028 139 225C139 213.972 130.028 205 119 205C107.972 205 99 213.972 99 225Z" fill="#3E685A"/>
<path d="M379.051 56.0435C384.316 50.7812 384.316 42.2188 379.051 36.9565C373.772 31.6821 365.229 31.6802 359.949 36.9565C354.684 42.2188 354.684 50.7812 359.949 56.0435C365.228 61.3185 373.771 61.3191 379.051 56.0435Z" fill="#3E685A"/>
<path d="M332.698 105.355C344.533 105.355 354.162 95.7258 354.162 83.8908C354.162 72.0548 344.533 62.4258 332.698 62.4258C320.862 62.4258 311.233 72.0548 311.233 83.8908C311.233 95.7268 320.862 105.355 332.698 105.355Z" fill="#3E685A"/>
<path d="M79 155C79 163.271 85.729 170 94 170C102.271 170 109 163.271 109 155C109 146.729 102.271 140 94 140C85.729 140 79 146.729 79 155Z" fill="#3E685A"/>
<path d="M359 200C359 224.813 379.186 245 404 245C428.813 245 449 224.813 449 200C449 175.187 428.813 155 404 155C379.186 155 359 175.187 359 200ZM404 175C417.785 175 429 186.215 429 200C429 213.785 417.785 225 404 225C390.215 225 379 213.785 379 200C379 186.215 390.215 175 404 175Z" fill="#3E685A"/>
<path d="M404 215C412.271 215 419 208.271 419 200C419 191.729 412.271 185 404 185C395.728 185 389 191.729 389 200C389 208.271 395.728 215 404 215Z" fill="#3E685A"/>
<path d="M444 430C449.523 430 454 425.523 454 420C454 414.477 449.523 410 444 410C438.477 410 434 414.477 434 420C434 425.523 438.477 430 444 430Z" fill="#3E685A"/>
<path d="M109 328V325H49V328C49 375.972 88.028 415 136 415H144.166H163.14C131.093 399.147 109 366.108 109 328Z" fill="#3E685A"/>
<path d="M109 285H49V315H109V285Z" fill="#3E685A"/>
<path d="M119 315H264C266.762 315 269 317.238 269 320C269 322.762 266.762 325 264 325H119V328C119 375.972 158.028 415 206 415H262C309.972 415 349 375.972 349 328C349 325.238 351.238 323 354 323C356.762 323 359 325.238 359 328C359 366.108 336.907 399.147 304.86 415C309.769 415 320.842 415 332 415C379.972 415 419 375.972 419 328V285H119V315Z" fill="#3E685A"/>
<path d="M434 110C439.523 110 444 105.523 444 100C444 94.4772 439.523 90 434 90C428.477 90 424 94.4772 424 100C424 105.523 428.477 110 434 110Z" fill="#3E685A"/>
<path d="M344 150C349.523 150 354 145.523 354 140C354 134.477 349.523 130 344 130C338.477 130 334 134.477 334 140C334 145.523 338.477 150 344 150Z" fill="#3E685A"/>
<path d="M274 40C279.523 40 284 35.5228 284 30C284 24.4772 279.523 20 274 20C268.477 20 264 24.4772 264 30C264 35.5228 268.477 40 274 40Z" fill="#3E685A"/>
<path d="M174 20C179.523 20 184 15.5228 184 10C184 4.47715 179.523 0 174 0C168.477 0 164 4.47715 164 10C164 15.5228 168.477 20 174 20Z" fill="#3E685A"/>
<path d="M84 50C89.5228 50 94 45.5228 94 40C94 34.4772 89.5228 30 84 30C78.4772 30 74 34.4772 74 40C74 45.5228 78.4772 50 84 50Z" fill="#3E685A"/>
<path d="M10 170C15.5228 170 20 165.523 20 160C20 154.477 15.5228 150 10 150C4.47715 150 0 154.477 0 160C0 165.523 4.47715 170 10 170Z" fill="#3E685A"/>
<path d="M184 250C189.523 250 194 245.523 194 240C194 234.477 189.523 230 184 230C178.477 230 174 234.477 174 240C174 245.523 178.477 250 184 250Z" fill="#3E685A"/>
<path d="M394 460C399.523 460 404 455.523 404 450C404 444.477 399.523 440 394 440C388.477 440 384 444.477 384 450C384 455.523 388.477 460 394 460Z" fill="#3E685A"/>
<path d="M44 450C49.5228 450 54 445.523 54 440C54 434.477 49.5228 430 44 430C38.4772 430 34 434.477 34 440C34 445.523 38.4772 450 44 450Z" fill="#3E685A"/>
<path d="M180.7 125.555C182.13 126.985 182.557 129.135 181.784 131.004C181.01 132.872 179.187 134.09 177.164 134.09H171.053C163.701 134.09 157.72 140.071 157.72 147.423C157.72 154.775 163.701 160.756 171.053 160.756H197.167C199.469 160.756 201.474 162.328 202.023 164.565C202.572 166.801 201.523 169.123 199.482 170.189C195.054 172.501 192.303 177.029 192.303 182.007C192.303 189.359 198.284 195.34 205.636 195.34H231.75C234.052 195.34 236.057 196.912 236.606 199.148C237.155 201.384 236.105 203.706 234.065 204.772C229.637 207.085 226.886 211.614 226.886 216.59C226.886 223.942 232.867 229.923 240.22 229.923H282.711L223.393 170.606C217.545 164.757 217.545 155.241 223.393 149.392C226.228 146.56 229.995 145 234 145C238.005 145 241.771 146.56 244.604 149.392L303.922 208.71L303.923 166.22C303.922 158.868 297.941 152.887 290.589 152.887C285.612 152.887 281.084 155.638 278.771 160.066C277.706 162.107 275.382 163.155 273.148 162.607C270.912 162.058 269.339 160.053 269.339 157.751V131.637C269.339 124.285 263.358 118.304 256.006 118.304C251.028 118.304 246.5 121.054 244.188 125.482C243.122 127.523 240.798 128.572 238.565 128.024C236.329 127.475 234.756 125.47 234.756 123.168V97.0539C234.756 89.7019 228.775 83.7209 221.423 83.7209C214.071 83.7209 208.09 89.7019 208.09 97.0539V103.165C208.09 105.187 206.872 107.011 205.004 107.785C203.136 108.557 200.984 108.131 199.555 106.701L169.614 76.7599C164.404 71.5499 155.97 71.5489 150.758 76.7599C145.56 81.9589 145.56 90.4169 150.759 95.6159L180.7 125.555Z" fill="#FFB744"/>
<path d="M230.464 156.464C228.511 158.417 228.511 161.583 230.464 163.535L320.464 253.535C321.44 254.512 322.721 255 324 255C325.279 255 326.56 254.512 327.535 253.535C329.488 251.583 329.488 248.417 327.535 246.465L237.535 156.465C235.582 154.512 232.417 154.512 230.464 156.464Z" fill="#3E685A"/>
</svg>
