<svg width="391" height="382" viewBox="0 0 391 382" fill="none" xmlns="http://www.w3.org/2000/svg">
<path d="M34.7273 325.568C27.5466 325.568 21.7046 331.409 21.7046 338.591C21.7046 345.773 27.5466 351.614 34.7273 351.614C41.908 351.614 47.75 345.773 47.75 338.591C47.75 331.409 41.908 325.568 34.7273 325.568Z" fill="#3E685A"/>
<path d="M347.273 47.7499C359.241 47.7499 368.977 38.0133 368.977 26.0454C368.977 14.0775 359.241 4.34082 347.273 4.34082C335.305 4.34082 325.568 14.0775 325.568 26.0454C325.568 38.0133 335.305 47.7499 347.273 47.7499Z" fill="#3E685A"/>
<path d="M364.636 95.5004C369.431 95.5004 373.318 91.6134 373.318 86.8185C373.318 82.0237 369.431 78.1367 364.636 78.1367C359.841 78.1367 355.954 82.0237 355.954 86.8185C355.954 91.6134 359.841 95.5004 364.636 95.5004Z" fill="#3E685A"/>
<path d="M251.773 17.3636C256.567 17.3636 260.454 13.4767 260.454 8.68182C260.454 3.88698 256.567 0 251.773 0C246.978 0 243.091 3.88698 243.091 8.68182C243.091 13.4767 246.978 17.3636 251.773 17.3636Z" fill="#3E685A"/>
<path d="M17.3635 17.3636C22.1583 17.3636 26.0453 13.4767 26.0453 8.68182C26.0453 3.88698 22.1583 0 17.3635 0C12.5686 0 8.68164 3.88698 8.68164 8.68182C8.68164 13.4767 12.5686 17.3636 17.3635 17.3636Z" fill="#3E685A"/>
<path d="M8.68182 269.136C13.4767 269.136 17.3636 265.249 17.3636 260.454C17.3636 255.659 13.4767 251.772 8.68182 251.772C3.88698 251.772 0 255.659 0 260.454C0 265.249 3.88698 269.136 8.68182 269.136Z" fill="#3E685A"/>
<path d="M121.546 382C126.34 382 130.227 378.113 130.227 373.319C130.227 368.524 126.34 364.637 121.546 364.637C116.751 364.637 112.864 368.524 112.864 373.319C112.864 378.113 116.751 382 121.546 382Z" fill="#3E685A"/>
<path d="M206.567 295.131C199.407 294.58 194.031 288.307 194.581 281.147C195.125 274.083 201.37 268.636 208.545 269.16L253.271 272.601L232.459 251.789L191.658 248.65C184.498 248.099 179.121 241.826 179.672 234.666C180.216 227.601 186.461 222.142 193.641 222.68L204.159 223.489L189.486 208.816L167.687 207.14C160.528 206.588 155.153 200.317 155.701 193.158C156.068 188.404 159.01 184.378 163.084 182.415L130.828 150.159C128.368 147.699 127.014 144.429 127.014 140.95C127.014 133.752 132.838 127.929 140.037 127.929C143.514 127.929 146.784 129.282 149.244 131.741L181.486 163.983C183.426 159.941 187.4 156.988 192.242 156.615C199.51 156.068 205.687 161.59 206.226 168.6L207.903 190.4L222.576 205.073L221.767 194.569C221.183 186.985 227.176 180.548 234.752 180.548C241.513 180.548 247.216 185.829 247.736 192.571L250.875 233.373L271.687 254.185L268.248 209.479C267.666 201.921 273.663 195.458 281.228 195.458C287.993 195.458 293.698 200.739 294.217 207.481L299.987 282.486L338.864 321.363C356.508 296.692 358.663 263.144 338.177 242.658L337.888 242.37C336.194 240.675 336.194 237.926 337.889 236.232C359.211 214.909 359.215 180.223 337.9 158.907C330.577 151.584 321.38 146.51 311.305 144.237C309.132 143.746 307.683 141.692 307.951 139.481C313.689 92.0032 274.212 51.4244 226.553 55.9225C224.481 56.1178 222.535 54.7964 221.966 52.7762C219.455 43.853 214.636 35.6435 208.027 29.0358C186.664 7.67414 152.082 7.66806 130.703 29.047C129.007 30.7426 126.259 30.7426 124.564 29.047L124.276 28.7597C114.832 19.3156 101.64 14.116 87.1296 14.116C68.5671 14.116 49.6277 22.4098 35.1655 36.8711C9.22683 62.8072 4.80084 101.022 25.0885 123.867C26.6096 125.581 26.5375 128.182 24.9227 129.808C24.5008 130.442 8.83008 144.077 8.83008 168.553C8.83008 194.337 26.4394 215.202 49.2292 221.347C51.252 221.892 52.596 223.804 52.4258 225.892C48.5945 272.714 88.254 311.579 135.188 306.472C137.404 306.237 139.438 307.704 139.903 309.881C142.106 320.193 147.225 329.599 154.707 337.081C176.077 358.451 210.669 358.453 232.043 337.081C233.737 335.386 236.487 335.386 238.181 337.081L240.967 339.867C250.412 349.311 263.605 354.513 278.116 354.511C292.844 354.509 307.795 349.273 320.568 339.898L281.57 300.9L206.567 295.131ZM241.331 125.603C239.635 123.907 239.635 121.159 241.331 119.464C243.025 117.769 245.775 117.769 247.469 119.464C259.316 131.311 259.316 150.589 247.469 162.436C245.775 164.132 243.025 164.131 241.331 162.436C239.635 160.741 239.635 157.992 241.331 156.297C245.43 152.198 247.688 146.747 247.688 140.95C247.688 135.153 245.43 129.702 241.331 125.603ZM179.94 76.4906C178.244 74.795 178.244 72.0463 179.94 70.3517C181.636 68.657 184.383 68.657 186.079 70.3517C197.926 82.1989 197.926 101.478 186.079 113.325C185.232 114.172 184.12 114.596 183.009 114.596C181.898 114.596 180.787 114.172 179.939 113.325C178.244 111.629 178.244 108.881 179.939 107.186C184.039 103.086 186.297 97.636 186.297 91.8383C186.298 86.0414 184.04 80.5901 179.94 76.4906ZM75.5776 193.131C73.8821 191.436 73.8821 188.687 75.5776 186.992C84.0606 178.51 84.0615 164.78 75.5776 156.297C67.1155 147.835 53.3452 147.835 44.8831 156.297C43.1875 157.993 40.4397 157.992 38.7441 156.297C37.0486 154.602 37.0486 151.853 38.7441 150.158C50.5914 138.311 69.8693 138.311 81.7174 150.158C93.5924 162.034 93.5941 181.255 81.7174 193.131C80.021 194.826 77.2732 194.826 75.5776 193.131ZM118.551 253.468C101.796 253.468 88.1645 239.836 88.1645 223.081C88.1645 220.683 90.1084 218.74 92.5054 218.74C94.9025 218.74 96.8463 220.683 96.8463 223.081C96.8463 235.049 106.583 244.786 118.551 244.786C120.948 244.786 122.892 246.729 122.892 249.127C122.892 251.525 120.948 253.468 118.551 253.468Z" fill="#FFB744"/>
<path d="M382 329.91C386.795 329.91 390.682 326.023 390.682 321.228C390.682 316.433 386.795 312.546 382 312.546C377.205 312.546 373.318 316.433 373.318 321.228C373.318 326.023 377.205 329.91 382 329.91Z" fill="#3E685A"/>
<path d="M291.578 286.351L285.561 208.146C285.377 205.755 283.315 203.974 280.9 204.15C278.51 204.334 276.72 206.421 276.904 208.811L282.143 276.918L242.465 237.239L239.08 193.235C238.896 190.846 236.834 189.061 234.419 189.24C232.029 189.424 230.24 191.511 230.424 193.901L233.032 227.806L199.493 194.266L197.569 169.264C197.385 166.874 195.311 165.086 192.908 165.269C190.518 165.453 188.729 167.54 188.912 169.93L190.059 184.832L143.105 137.878C141.41 136.184 138.662 136.184 136.966 137.878C135.271 139.574 135.271 142.323 136.966 144.017L183.92 190.97L169.018 189.824C166.636 189.646 164.541 191.43 164.357 193.82C164.174 196.211 165.962 198.297 168.352 198.481L193.352 200.404L226.893 233.944L192.989 231.336C190.611 231.157 188.511 232.942 188.327 235.331C188.143 237.722 189.933 239.808 192.323 239.992L236.326 243.377L276.004 283.055L207.899 277.818C205.503 277.639 203.421 279.423 203.237 281.813C203.053 284.204 204.843 286.291 207.233 286.475L285.439 292.491L370.25 377.301C371.943 378.997 374.694 378.997 376.388 377.301C378.083 375.607 378.083 372.858 376.388 371.163L291.578 286.351Z" fill="#3E685A"/>
</svg>
