<svg width="130" height="29" viewBox="0 0 130 29" fill="none" xmlns="http://www.w3.org/2000/svg">
<path d="M23.36 28H17.84L17.2 24.64L16.52 22.24L11.48 22.12L7.04 22.24L6.36 24.36L5.68 28H0.32L9.04 2.24H15.48L23.36 28ZM15.36 18.04L12.32 7.32H11.96L8.44 18.04L11.88 18.12L15.36 18.04ZM36.97 9.36C37.21 9.36 37.5433 9.38667 37.97 9.44V14.36L37.41 14.56C36.9567 14.3733 36.4633 14.28 35.93 14.28C34.3833 14.28 32.9833 15.28 31.73 17.28V19.8L32.01 28H26.69L27.01 20.32L26.77 9.76L31.81 9.32L31.77 12.96H32.09C33.3967 10.56 35.0233 9.36 36.97 9.36ZM48.7725 24.08C49.6258 24.08 50.5192 23.8533 51.4525 23.4L51.8925 23.8L51.3725 26.96C50.0125 27.6533 48.6258 28.08 47.2125 28.24C43.6125 27.8667 41.8125 26.1067 41.8125 22.96L42.0125 19.64L41.9725 12.76H39.4925L39.2925 12.48L39.5725 9.56H41.9325V6.48L46.7725 4.92L47.1325 5.24L47.0125 9.56H51.7725L51.9325 9.84L51.6925 12.76H46.9325L46.6925 21.72C46.6925 22.5733 46.8525 23.1867 47.1725 23.56C47.4925 23.9067 48.0258 24.08 48.7725 24.08ZM69.3947 19.36L58.5947 19.44C58.8347 22.7733 60.528 24.44 63.6747 24.44C65.328 24.44 67.168 23.9733 69.1947 23.04L69.6347 23.32L68.8347 27.28C66.808 28.0267 64.9014 28.4 63.1147 28.4C60.1814 28.4 57.8747 27.5467 56.1947 25.84C54.5414 24.1333 53.7147 21.7733 53.7147 18.76C53.7147 15.7733 54.528 13.4133 56.1547 11.68C57.7814 9.92 59.9814 9.04 62.7547 9.04C65.128 9.04 66.9547 9.69333 68.2347 11C69.5414 12.28 70.1947 14.08 70.1947 16.4C70.1947 17.0133 70.128 17.7867 69.9947 18.72L69.3947 19.36ZM65.5547 15.8C65.5547 14.7333 65.3147 13.9333 64.8347 13.4C64.3547 12.84 63.648 12.56 62.7147 12.56C61.6747 12.56 60.808 12.9067 60.1147 13.6C59.4214 14.2667 58.9547 15.24 58.7147 16.52L65.4747 16.36L65.5547 15.8ZM96.6419 28L96.9619 16.4C96.9619 14.4267 96.1219 13.44 94.4419 13.44C93.2419 13.44 91.9885 13.9733 90.6819 15.04L90.5619 19.84L90.8019 28H85.4819L85.8019 16.4C85.8285 15.44 85.6152 14.7067 85.1619 14.2C84.7352 13.6933 84.1085 13.44 83.2819 13.44C82.1085 13.44 80.8152 14 79.4019 15.12V19.8L79.6419 28H74.3619L74.6419 20.32L74.4419 9.76L79.4419 9.32V12.04H79.7219C81.1885 10.7067 82.8019 9.74667 84.5619 9.16C87.5485 9.16 89.4552 10.16 90.2819 12.16H90.5219C92.0419 10.7467 93.7752 9.74667 95.7219 9.16C97.7485 9.16 99.2819 9.62667 100.322 10.56C101.389 11.4667 101.895 12.7867 101.842 14.52L101.722 19.84L101.962 28H96.6419ZM107.488 20.32L107.288 9.76L112.528 9.32L112.288 19.8L112.528 28H107.208L107.488 20.32ZM110.008 0.279999C110.834 0.279999 111.474 0.519999 111.928 1C112.408 1.48 112.648 2.14667 112.648 3C112.648 3.90667 112.394 4.62667 111.888 5.16C111.381 5.69333 110.688 5.96 109.808 5.96C108.928 5.96 108.248 5.72 107.768 5.24C107.314 4.76 107.088 4.08 107.088 3.2C107.088 2.32 107.341 1.61333 107.848 1.08C108.381 0.546666 109.101 0.279999 110.008 0.279999ZM124.297 9.08C126.111 9.08 127.817 9.38667 129.417 10L128.697 13.92L128.057 14.12C127.284 13.6133 126.511 13.2267 125.737 12.96C124.964 12.6933 124.284 12.56 123.697 12.56C123.057 12.56 122.551 12.7333 122.177 13.08C121.804 13.4 121.617 13.8 121.617 14.28C121.617 14.84 121.857 15.2933 122.337 15.64C122.844 15.9867 123.631 16.3733 124.697 16.8C125.764 17.2267 126.644 17.64 127.337 18.04C128.031 18.44 128.617 19 129.097 19.72C129.604 20.4133 129.857 21.28 129.857 22.32C129.857 23.3867 129.577 24.3867 129.017 25.32C128.484 26.2267 127.657 26.9733 126.537 27.56C125.417 28.12 124.044 28.4 122.417 28.4C120.497 28.4 118.511 28 116.457 27.2L117.057 23.04L117.577 22.72C118.404 23.4133 119.324 23.9733 120.337 24.4C121.351 24.8 122.244 25 123.017 25C123.737 25 124.297 24.8267 124.697 24.48C125.097 24.1067 125.297 23.6667 125.297 23.16C125.297 22.6 125.044 22.1467 124.537 21.8C124.057 21.4533 123.284 21.0667 122.217 20.64C121.124 20.16 120.231 19.7333 119.537 19.36C118.844 18.96 118.244 18.4 117.737 17.68C117.257 16.96 117.017 16.0667 117.017 15C117.017 13.2667 117.671 11.8533 118.977 10.76C120.284 9.64 122.057 9.08 124.297 9.08Z" fill="#19191A"/>
</svg>
